<svg xmlns="http://www.w3.org/2000/svg" viewBox="4858 5286 37.014 30.988">
  <defs>
    <style>
      .cls-1 {
        fill: #333;
      }
    </style>
  </defs>
  <g id="noun_1226424_cc" transform="translate(4851 5263)">
    <g id="Group_20" data-name="Group 20" transform="translate(7 23)">
      <path id="Path_13" data-name="Path 13" class="cls-1" d="M21.983,969.364a.43.43,0,0,0-.323.269l-1.184,3.174H15.608a2.416,2.416,0,0,0-1.856.955,3.29,3.29,0,0,0-.726,2.058v11.62c0,.009,0,.018,0,.027a6.449,6.449,0,1,0,6.859,6.859H41.432a2.537,2.537,0,0,0,2.582-2.582V975.82a3.29,3.29,0,0,0-.726-2.058,2.417,2.417,0,0,0-1.856-.955H36.563l-1.184-3.174a.43.43,0,0,0-.4-.269H22.064a.424.424,0,0,0-.081,0Zm.377.861H34.68l1.184,3.161a.43.43,0,0,0,.4.282h5.165a1.538,1.538,0,0,1,1.184.632,2.482,2.482,0,0,1,.538,1.52v15.924a1.6,1.6,0,0,1-1.722,1.721H19.912l-.027.013a6.444,6.444,0,0,0-6-6.012c0-.009,0-.018,0-.027V975.82a2.482,2.482,0,0,1,.538-1.52,1.538,1.538,0,0,1,1.184-.632h5.165a.431.431,0,0,0,.4-.282l1.184-3.161Zm6.16,6.456a6.456,6.456,0,1,0,6.416,6.456A6.44,6.44,0,0,0,28.52,976.68Zm0,.861a5.595,5.595,0,1,1-5.568,5.595A5.577,5.577,0,0,1,28.52,977.541ZM13.456,988.3a5.595,5.595,0,1,1-5.6,5.595A5.588,5.588,0,0,1,13.456,988.3Zm-.054,2.569a.43.43,0,0,0-.377.444v2.152H10.874a.432.432,0,1,0,0,.861h2.152v2.152a.43.43,0,1,0,.861,0v-2.152h2.152a.43.43,0,1,0,0-.861H13.886v-2.152a.43.43,0,0,0-.484-.444Z" transform="translate(-7 -969.362)"/>
    </g>
  </g>
</svg>
