<svg xmlns="http://www.w3.org/2000/svg" viewBox="127 339 60 56">
  <defs>
    <style>
      .cls-1, .cls-2 {
        fill-rule: evenodd;
      }

      .cls-2 {
        fill: #909399;
      }
    </style>
  </defs>
  <g id="noun_575699_cc" transform="translate(127 338.988)">
    <g id="Group_3" data-name="Group 3">
      <g id="Group_2" data-name="Group 2" transform="translate(-105 -773)">
        <g id="Group_1" data-name="Group 1" transform="translate(105 773)">
          <path id="Path_1" data-name="Path 1" class="cls-1" d="M30,56.012a1,1,0,0,1-1-1v-46a1,1,0,0,1,2,0v46a1,1,0,0,1-1,1"/>
          <path id="Path_2" data-name="Path 2" class="cls-2" d="M6,46.283l23,7.359V9.741L6,2.382ZM30.121,54h.007l-.007,0Zm-.261,1.96a1.144,1.144,0,0,1-.347-.055L4.7,47.965a1,1,0,0,1-.7-.953v-46A1,1,0,0,1,5.3.06l25,8A1,1,0,0,1,31,9.012V54.82a1.139,1.139,0,0,1-1.14,1.14Z"/>
          <path id="Path_3" data-name="Path 3" class="cls-2" d="M17,17.273a.976.976,0,0,1-.372-.072L9.644,14.4a1,1,0,1,1,.745-1.855l6.983,2.8A1,1,0,0,1,17,17.273"/>
          <path id="Path_4" data-name="Path 4" class="cls-2" d="M24.981,25.535a1,1,0,0,1-.346-.062L9.671,19.951a1,1,0,0,1,.692-1.877L25.327,23.6a1,1,0,0,1-.346,1.938"/>
          <path id="Path_5" data-name="Path 5" class="cls-2" d="M24.981,31.535a1,1,0,0,1-.346-.062L9.671,25.951a1,1,0,0,1,.692-1.877L25.327,29.6a1,1,0,0,1-.346,1.938"/>
          <path id="Path_6" data-name="Path 6" class="cls-2" d="M24.981,37.535a1,1,0,0,1-.346-.062L9.671,31.951a1,1,0,0,1,.692-1.877L25.327,35.6a1,1,0,0,1-.346,1.938"/>
          <path id="Path_7" data-name="Path 7" class="cls-2" d="M24.981,43.535a1,1,0,0,1-.346-.062L9.671,37.951a1,1,0,0,1,.692-1.877L25.327,41.6a1,1,0,0,1-.346,1.938"/>
          <path id="Path_8" data-name="Path 8" class="cls-2" d="M31,9.741v43.9l23-7.359V2.382ZM29.879,54l-.007,0h.007Zm.261,1.96A1.139,1.139,0,0,1,29,54.82V9.012a1,1,0,0,1,.695-.953l25-8A1,1,0,0,1,56,1.013v46a1,1,0,0,1-.695.952L30.487,55.905a1.144,1.144,0,0,1-.347.055Z"/>
          <path id="Path_9" data-name="Path 9" class="cls-2" d="M55,47.012h0Zm-53,7H23.595L4.7,47.964a1,1,0,0,1-.7-.952v-37H2Zm34.4,0H58v-44H56v37a1,1,0,0,1-.695.952Zm22.12,2H1.475A1.477,1.477,0,0,1,0,54.536V9.488A1.477,1.477,0,0,1,1.475,8.012H5a1,1,0,0,1,1,1V46.283l23.7,7.583a1.016,1.016,0,0,1,.6,0L54,46.283V9.012a1,1,0,0,1,1-1h3.525A1.477,1.477,0,0,1,60,9.488V54.536a1.477,1.477,0,0,1-1.475,1.476Z"/>
          <path id="Path_10" data-name="Path 10" class="cls-2" d="M35.036,19.535A1,1,0,0,1,34.69,17.6l14.964-5.523a1,1,0,0,1,.692,1.877L35.382,19.472a1,1,0,0,1-.346.062"/>
          <path id="Path_11" data-name="Path 11" class="cls-2" d="M35.036,25.535A1,1,0,0,1,34.69,23.6l14.964-5.523a1,1,0,0,1,.692,1.877L35.382,25.472a1,1,0,0,1-.346.062"/>
          <path id="Path_12" data-name="Path 12" class="cls-2" d="M35.036,31.535A1,1,0,0,1,34.69,29.6l14.964-5.523a1,1,0,0,1,.692,1.877L35.382,31.472a1,1,0,0,1-.346.062"/>
          <path id="Path_13" data-name="Path 13" class="cls-2" d="M35.036,37.535A1,1,0,0,1,34.69,35.6l14.964-5.523a1,1,0,0,1,.692,1.877L35.382,37.472a1,1,0,0,1-.346.062"/>
          <path id="Path_14" data-name="Path 14" class="cls-2" d="M35.036,43.535A1,1,0,0,1,34.69,41.6l14.964-5.523a1,1,0,0,1,.692,1.877L35.382,43.472a1,1,0,0,1-.346.062"/>
        </g>
      </g>
    </g>
  </g>
</svg>
