<svg xmlns="http://www.w3.org/2000/svg" viewBox="4961 5288 26.849 27.777">
  <defs>
    <style>
      .cls-1 {
        fill: #333;
      }
    </style>
  </defs>
  <g id="noun_1014446_cc" transform="translate(4975.2 5282.7)">
    <g id="Group_31" data-name="Group 31" transform="translate(-28 -9)">
      <path id="Path_18" data-name="Path 18" class="cls-1" d="M36.415,14.3H18.07a4.3,4.3,0,0,0-4.27,4.27V37.806a4.3,4.3,0,0,0,4.27,4.27H36.378a4.3,4.3,0,0,0,4.27-4.27V18.57A4.239,4.239,0,0,0,36.415,14.3Zm0,26.7H18.07a3.154,3.154,0,0,1-3.156-3.156V23.435a.647.647,0,0,0,.446.223H39.126a.529.529,0,0,0,.446-.223V37.843A3.154,3.154,0,0,1,36.415,41Zm3.156-18.27a.647.647,0,0,0-.446-.223H15.36a.529.529,0,0,0-.446.223V18.57a3.154,3.154,0,0,1,3.156-3.156H36.378a3.154,3.154,0,0,1,3.156,3.156V22.73Z" transform="translate(0 0)"/>
      <path id="Path_19" data-name="Path 19" class="cls-1" d="M33.185,26.3H30.957a.557.557,0,1,0,0,1.114h2.228a.571.571,0,0,0,.557-.557A.547.547,0,0,0,33.185,26.3Z" transform="translate(-10.436 -7.544)"/>
      <path id="Path_20" data-name="Path 20" class="cls-1" d="M63.385,26.3H61.157a.557.557,0,0,0,0,1.114h2.228a.557.557,0,1,0,0-1.114Z" transform="translate(-29.421 -7.544)"/>
      <path id="Path_21" data-name="Path 21" class="cls-1" d="M39.64,48.8c0-.037-.037-.074-.037-.111-.037-.037-.037-.074-.074-.074a.538.538,0,0,0-.78,0c-.037.037-.037.074-.074.074a.136.136,0,0,0-.037.111c0,.037-.037.074-.037.111v.111a.779.779,0,0,0,.149.408.812.812,0,0,0,.186.111.471.471,0,0,0,.223.037.779.779,0,0,0,.408-.149.812.812,0,0,0,.111-.186.471.471,0,0,0,.037-.223v-.111C39.64,48.877,39.64,48.84,39.64,48.8Z" transform="translate(-15.591 -21.468)"/>
      <path id="Path_22" data-name="Path 22" class="cls-1" d="M49.577,48.818c0-.037-.037-.074-.037-.111-.037-.037-.037-.074-.074-.074a.665.665,0,0,0-.52-.149.136.136,0,0,0-.111.037c-.037,0-.074.037-.111.037-.037.037-.074.037-.074.074-.037.037-.037.074-.074.074a.136.136,0,0,0-.037.111c0,.037-.037.074-.037.111v.111a.471.471,0,0,0,.037.223.812.812,0,0,0,.111.186.558.558,0,0,0,.408.149.779.779,0,0,0,.408-.149.812.812,0,0,0,.111-.186.471.471,0,0,0,.037-.223v-.111A.136.136,0,0,1,49.577,48.818Z" transform="translate(-21.814 -21.484)"/>
      <path id="Path_23" data-name="Path 23" class="cls-1" d="M59.577,48.834c0-.037-.037-.074-.037-.111-.037-.037-.037-.074-.074-.074-.037-.037-.074-.037-.074-.074-.037,0-.074-.037-.111-.037s-.074-.037-.111-.037h-.223a.136.136,0,0,0-.111.037c-.037,0-.074.037-.111.037-.037.037-.074.037-.074.074-.037.037-.037.074-.074.074a.136.136,0,0,0-.037.111c0,.037-.037.074-.037.111v.111a.471.471,0,0,0,.037.223.812.812,0,0,0,.111.186.558.558,0,0,0,.408.149.779.779,0,0,0,.408-.149.558.558,0,0,0,.149-.408v-.111A.136.136,0,0,1,59.577,48.834Z" transform="translate(-28.101 -21.5)"/>
      <path id="Path_24" data-name="Path 24" class="cls-1" d="M69.64,48.8c0-.037-.037-.074-.037-.111-.037-.037-.037-.074-.074-.074a.538.538,0,0,0-.78,0c-.037.037-.037.074-.074.074a.136.136,0,0,0-.037.111c0,.037-.037.074-.037.111v.111a.779.779,0,0,0,.149.408.558.558,0,0,0,.408.149.779.779,0,0,0,.408-.149.811.811,0,0,0,.111-.186.471.471,0,0,0,.037-.223v-.111C69.64,48.877,69.64,48.84,69.64,48.8Z" transform="translate(-34.45 -21.468)"/>
      <path id="Path_25" data-name="Path 25" class="cls-1" d="M29.64,58.8c0-.037-.037-.074-.037-.111-.037-.037-.037-.074-.074-.074a.538.538,0,0,0-.78,0l-.074.074a.136.136,0,0,0-.037.111c0,.037-.037.074-.037.111v.111a.779.779,0,0,0,.149.408.558.558,0,0,0,.408.149.779.779,0,0,0,.408-.149.558.558,0,0,0,.149-.408v-.111C29.64,58.877,29.64,58.84,29.64,58.8Z" transform="translate(-9.304 -27.755)"/>
      <path id="Path_26" data-name="Path 26" class="cls-1" d="M39.577,58.818c0-.037-.037-.074-.037-.111-.037-.037-.037-.074-.074-.074l-.074-.074c-.037,0-.074-.037-.111-.037s-.074-.037-.111-.037a.665.665,0,0,0-.52.149l-.074.074a.136.136,0,0,0-.037.111c0,.037-.037.074-.037.111v.111a.779.779,0,0,0,.149.408.812.812,0,0,0,.186.111.471.471,0,0,0,.223.037.779.779,0,0,0,.408-.149.558.558,0,0,0,.149-.408v-.111A.136.136,0,0,1,39.577,58.818Z" transform="translate(-15.528 -27.77)"/>
      <path id="Path_27" data-name="Path 27" class="cls-1" d="M49.577,58.818c0-.037-.037-.074-.037-.111-.037-.037-.037-.074-.074-.074-.037-.037-.074-.037-.074-.074-.037,0-.074-.037-.111-.037s-.074-.037-.111-.037a.665.665,0,0,0-.52.149l-.074.074a.136.136,0,0,0-.037.111c0,.037-.037.074-.037.111v.111a.779.779,0,0,0,.149.408.558.558,0,0,0,.408.149.471.471,0,0,0,.223-.037.812.812,0,0,0,.186-.111.558.558,0,0,0,.149-.408v-.111A.136.136,0,0,1,49.577,58.818Z" transform="translate(-21.814 -27.77)"/>
      <path id="Path_28" data-name="Path 28" class="cls-1" d="M59.577,58.818c0-.037-.037-.074-.037-.111-.037-.037-.037-.074-.074-.074l-.074-.074c-.037,0-.074-.037-.111-.037s-.074-.037-.111-.037a.665.665,0,0,0-.52.149l-.074.074a.136.136,0,0,0-.037.111c0,.037-.037.074-.037.111v.111a.779.779,0,0,0,.149.408.812.812,0,0,0,.186.111.471.471,0,0,0,.223.037.779.779,0,0,0,.408-.149.558.558,0,0,0,.149-.408v-.111A.136.136,0,0,1,59.577,58.818Z" transform="translate(-28.101 -27.77)"/>
      <path id="Path_29" data-name="Path 29" class="cls-1" d="M69.64,58.8c0-.037-.037-.074-.037-.111-.037-.037-.037-.074-.074-.074a.538.538,0,0,0-.78,0l-.074.074a.136.136,0,0,0-.037.111c0,.037-.037.074-.037.111v.111a.779.779,0,0,0,.149.408.558.558,0,0,0,.408.149.471.471,0,0,0,.223-.037.812.812,0,0,0,.186-.111.558.558,0,0,0,.149-.408v-.111C69.64,58.877,69.64,58.84,69.64,58.8Z" transform="translate(-34.45 -27.755)"/>
      <path id="Path_30" data-name="Path 30" class="cls-1" d="M29.577,68.834c0-.037-.037-.074-.037-.111-.037-.037-.037-.074-.074-.074l-.074-.074c-.037,0-.074-.037-.111-.037s-.074-.037-.111-.037h-.223a.136.136,0,0,0-.111.037c-.037,0-.074.037-.111.037-.037.037-.074.037-.074.074l-.074.074a.136.136,0,0,0-.037.111c0,.037-.037.074-.037.111v.111a.779.779,0,0,0,.149.408.558.558,0,0,0,.408.149.471.471,0,0,0,.223-.037.811.811,0,0,0,.186-.111.558.558,0,0,0,.149-.408v-.111A.136.136,0,0,1,29.577,68.834Z" transform="translate(-9.241 -34.073)"/>
      <path id="Path_31" data-name="Path 31" class="cls-1" d="M39.577,68.834c0-.037-.037-.074-.037-.111-.037-.037-.037-.074-.074-.074-.037-.037-.074-.037-.074-.074-.037,0-.074-.037-.111-.037s-.074-.037-.111-.037h-.223a.136.136,0,0,0-.111.037c-.037,0-.074.037-.111.037-.037.037-.074.037-.074.074l-.074.074a.136.136,0,0,0-.037.111c0,.037-.037.074-.037.111v.111a.779.779,0,0,0,.149.408.812.812,0,0,0,.186.111.687.687,0,0,0,.446,0,.811.811,0,0,0,.186-.111.558.558,0,0,0,.149-.408v-.111A.136.136,0,0,1,39.577,68.834Z" transform="translate(-15.528 -34.073)"/>
      <path id="Path_32" data-name="Path 32" class="cls-1" d="M49.577,68.834c0-.037-.037-.074-.037-.111-.037-.037-.037-.074-.074-.074-.037-.037-.074-.037-.074-.074-.037,0-.074-.037-.111-.037s-.074-.037-.111-.037h-.223a.136.136,0,0,0-.111.037c-.037,0-.074.037-.111.037-.037.037-.074.037-.074.074l-.074.074a.136.136,0,0,0-.037.111c0,.037-.037.074-.037.111v.111a.471.471,0,0,0,.037.223.812.812,0,0,0,.111.186.558.558,0,0,0,.408.149.471.471,0,0,0,.223-.037.811.811,0,0,0,.186-.111.558.558,0,0,0,.149-.408v-.111A.136.136,0,0,1,49.577,68.834Z" transform="translate(-21.814 -34.073)"/>
      <path id="Path_33" data-name="Path 33" class="cls-1" d="M59.577,68.834c0-.037-.037-.074-.037-.111-.037-.037-.037-.074-.074-.074l-.074-.074c-.037,0-.074-.037-.111-.037s-.074-.037-.111-.037h-.223a.136.136,0,0,0-.111.037c-.037,0-.074.037-.111.037-.037.037-.074.037-.074.074l-.074.074a.136.136,0,0,0-.037.111c0,.037-.037.074-.037.111v.111a.779.779,0,0,0,.149.408.812.812,0,0,0,.186.111.471.471,0,0,0,.223.037.779.779,0,0,0,.408-.149.558.558,0,0,0,.149-.408v-.111A.136.136,0,0,1,59.577,68.834Z" transform="translate(-28.101 -34.073)"/>
    </g>
  </g>
</svg>
