<?xml version="1.0" encoding="utf-8"?>
<!-- Generator: Adobe Illustrator 21.0.0, SVG Export Plug-In . SVG Version: 6.00 Build 0)  -->
<svg version="1.1" id="Слой_1" xmlns="http://www.w3.org/2000/svg" xmlns:xlink="http://www.w3.org/1999/xlink" x="0px" y="0px"
	 viewBox="0 0 69.9 90" style="enable-background:new 0 0 69.9 90;" xml:space="preserve">
<style type="text/css">
	.st0{fill:#F15C44;}
</style>
<path class="st0" d="M25.5,89c-4.9-2.9-8.4-8-8.6-14C16.6,63.8,24.4,58.3,29,50.8c6.6-10.8,4.8-17.5,4.8-17.5s5.5,3.1,8.7,14.6
	c1,3.4,1.2,6.8,0.9,10c-0.5,8.1-4,15.4-4,15.4s6.1-1.3,7.8-12.4c2.8,2.9,5.4,7.1,5.7,11.5C53.4,80,48.9,87,42.1,90
	c11.8-2.7,20.2-12.7,23.1-20c3.7-9.2,2.7-17.4,2.1-24.5c-0.8-9.7,2.6-16.9,2.6-16.9s-6.5,1.9-11.3,9.8c-2.2,3.6-3.1,8.9-3.1,8.9
	S56,42.6,52.9,34c-3.1-8.4-5.9-11.4-7.6-17.6C43.1,8.1,48,0,48,0S28.6,3.6,19.8,20.5c-7.8,15-4.6,24-4.6,24s-3.3-3.1-5-7.4
	s-1.3-8.2-1.3-8.2S-4.9,44.1,1.8,63.2C6.3,76.6,15,85.4,25.5,89z"/>
</svg>
