<svg xmlns="http://www.w3.org/2000/svg" viewBox="258.969 495 80.049 71.5">
  <defs>
    <style>
      .cls-1 {
        fill: #333;
      }
    </style>
  </defs>
  <g id="noun_876082_cc" transform="translate(249 480.8)">
    <path id="Path_2" data-name="Path 2" class="cls-1" d="M89.1,23.4a2.149,2.149,0,0,0-2.3-.2,26.726,26.726,0,0,1-12.3,3.3c-6.5,0-12-2.8-17.9-5.9-6.1-3.1-12.3-6.4-19.9-6.4a28.985,28.985,0,0,0-10.6,2.1,2.4,2.4,0,0,0-1.8-1.7,2.26,2.26,0,0,0-2.6,1.8l-.5,3.1v.1L14,60.6v.1L10,83.1a2.26,2.26,0,0,0,1.8,2.6h.4a2.256,2.256,0,0,0,2.2-1.8l3.8-21.4a25.446,25.446,0,0,1,11.3-2.8c6.5,0,12,2.8,17.9,5.9C53.5,68.7,59.7,72,67.3,72a30.055,30.055,0,0,0,14.3-3.8,2.484,2.484,0,0,0,1.2-1.6l7.2-41A2.278,2.278,0,0,0,89.1,23.4ZM78.6,64.7a25.446,25.446,0,0,1-11.3,2.8c-6.5,0-12-2.8-17.9-5.9-6.1-3.1-12.3-6.4-19.9-6.4a29.944,29.944,0,0,0-10.4,2l6.3-35.8a25.446,25.446,0,0,1,11.3-2.8c6.5,0,12,2.8,17.9,5.9,6.1,3.1,12.3,6.4,19.9,6.4a29.944,29.944,0,0,0,10.4-2Z"/>
  </g>
</svg>
