<svg xmlns="http://www.w3.org/2000/svg" viewBox="254 256 91.67 74">
  <defs>
    <style>
      .cls-1 {
        fill: #b9b9b9;
      }
    </style>
  </defs>
  <g id="friends" transform="translate(248 238)">
    <path id="Path_1" data-name="Path 1" class="cls-1" d="M38.58,63.74A22.87,22.87,0,1,1,61.45,40.87,22.87,22.87,0,0,1,38.58,63.74Zm0-39.74A16.87,16.87,0,1,0,55.45,40.87,16.87,16.87,0,0,0,38.58,24Z"/>
    <path id="Path_2" data-name="Path 2" class="cls-1" d="M68.17,92H9a3,3,0,0,1-3-3V78.94A32.42,32.42,0,0,1,21.36,51.28a3,3,0,1,1,3.18,5.09A26.46,26.46,0,0,0,12,78.94V86H65.17V78.94A26.5,26.5,0,0,0,52.93,56.56a3,3,0,1,1,3.24-5A32.48,32.48,0,0,1,71.17,79V89A3,3,0,0,1,68.17,92Z"/>
    <path id="Path_3" data-name="Path 3" class="cls-1" d="M72.83,66.64A17.67,17.67,0,1,1,90.5,49,17.67,17.67,0,0,1,72.83,66.64Zm0-29.33A11.67,11.67,0,1,0,84.5,49,11.67,11.67,0,0,0,72.83,37.31Z"/>
    <path id="Path_4" data-name="Path 4" class="cls-1" d="M94.67,87.5H69.6c-1.657,0,0-1.343,0-3s-1.657-3,0-3H91.67V77.08A18.78,18.78,0,0,0,83,61.22a3,3,0,0,1,3.24-5A24.75,24.75,0,0,1,97.67,77.08V84.5A3,3,0,0,1,94.67,87.5Z"/>
  </g>
</svg>
