<svg xmlns="http://www.w3.org/2000/svg" viewBox="8140.537 4952 52.784 31.25">
  <defs>
    <style>
      .cls-1 {
        fill: #b9b9b9;
      }
    </style>
  </defs>
  <g id="noun_1175010_cc" transform="translate(9087 3979.1)">
    <g id="Group_56" data-name="Group 56" transform="translate(-946.463 972.9)">
      <path id="Path_38" data-name="Path 38" class="cls-1" d="M-865.984,1010.274l-1.946-8.563a5.807,5.807,0,0,0-4.17-4.337,1.079,1.079,0,0,0-.834.111,8.326,8.326,0,0,1-3.725.834,9.144,9.144,0,0,1-3.726-.834,1.458,1.458,0,0,0-.834-.111,5.945,5.945,0,0,0-2.78,1.668,8.536,8.536,0,0,1,2.836,4.56l1.946,8.563c0,.111.056.167.056.278.834.056,1.668.056,2.5.056a54.668,54.668,0,0,0,9.731-.834A1.128,1.128,0,0,0-865.984,1010.274Z" transform="translate(918.733 -983.75)"/>
      <circle id="Ellipse_7" data-name="Ellipse 7" class="cls-1" cx="6.061" cy="6.061" r="6.061" transform="translate(36.011)"/>
      <path id="Path_39" data-name="Path 39" class="cls-1" d="M-928.412,999.142a5.525,5.525,0,0,0-2.78-1.668,1.078,1.078,0,0,0-.834.111,8.325,8.325,0,0,1-3.726.834,9.144,9.144,0,0,1-3.726-.834,1.458,1.458,0,0,0-.834-.111,5.807,5.807,0,0,0-4.17,4.337l-1.946,8.563a1.128,1.128,0,0,0,.945,1.39,54.668,54.668,0,0,0,9.731.834c.834,0,1.668,0,2.5-.056a.5.5,0,0,1,.056-.278l1.946-8.563A8.335,8.335,0,0,1-928.412,999.142Z" transform="translate(946.463 -983.795)"/>
      <circle id="Ellipse_8" data-name="Ellipse 8" class="cls-1" cx="6.061" cy="6.061" r="6.061" transform="translate(4.65)"/>
      <path id="Path_40" data-name="Path 40" class="cls-1" d="M-898.822,1006.211a5.807,5.807,0,0,0-4.17-4.337,1.078,1.078,0,0,0-.834.111,8.326,8.326,0,0,1-3.726.834,9.146,9.146,0,0,1-3.725-.834,1.457,1.457,0,0,0-.834-.111,5.807,5.807,0,0,0-4.17,4.337l-1.946,8.563a1.128,1.128,0,0,0,.945,1.39,54.668,54.668,0,0,0,9.731.834,54.667,54.667,0,0,0,9.731-.834,1.152,1.152,0,0,0,.945-1.39Z" transform="translate(933.944 -985.748)"/>
      <circle id="Ellipse_9" data-name="Ellipse 9" class="cls-1" cx="6.061" cy="6.061" r="6.061" transform="translate(20.331 2.502)"/>
    </g>
  </g>
</svg>
