<svg xmlns="http://www.w3.org/2000/svg" viewBox="4912 5289 31.134 25.777">
  <defs>
    <style>
      .cls-1 {
        fill: #333;
      }
    </style>
  </defs>
  <g id="noun_929019_cc" transform="translate(4935 5316)">
    <g id="Layer_2" data-name="Layer 2" transform="translate(-23 -27)">
      <g id="Layer_1" data-name="Layer 1">
        <path id="Path_17" data-name="Path 17" class="cls-1" d="M1.778,3.555H29.356a1.778,1.778,0,1,0,0-3.555H1.778a1.778,1.778,0,0,0,0,3.555Zm5.037,8.889A2.667,2.667,0,1,0,4.148,15.11,2.667,2.667,0,0,0,6.815,12.444Zm22.518,1.778a1.778,1.778,0,1,0,0-3.555h-15.7a1.778,1.778,0,1,0,0,3.555Zm0,10.666a1.778,1.778,0,0,0,0-3.555h-15.7a1.778,1.778,0,0,0,0,3.555ZM6.815,23.11a2.667,2.667,0,1,0-2.667,2.667A2.667,2.667,0,0,0,6.815,23.11Z"/>
      </g>
    </g>
  </g>
</svg>
