<svg xmlns="http://www.w3.org/2000/svg" viewBox="38 4531 23.534 19.331">
  <defs>
    <style>
      .cls-1 {
        fill: #fff;
      }
    </style>
  </defs>
  <g id="noun_806722_cc" transform="translate(38 4531)">
    <g id="Group_62" data-name="Group 62">
      <g id="Group_59" data-name="Group 59">
        <path id="Path_42" data-name="Path 42" class="cls-1" d="M1.261,2.522A1.261,1.261,0,0,1,0,1.261H0A1.261,1.261,0,0,1,1.261,0H22.273a1.261,1.261,0,0,1,1.261,1.261h0a1.261,1.261,0,0,1-1.261,1.261H1.261Z"/>
      </g>
      <g id="Group_60" data-name="Group 60" transform="translate(0 8.405)">
        <path id="Path_43" data-name="Path 43" class="cls-1" d="M1.261,23.593A1.261,1.261,0,0,1,0,22.332H0a1.261,1.261,0,0,1,1.261-1.261H22.273a1.261,1.261,0,0,1,1.26,1.261h0a1.261,1.261,0,0,1-1.26,1.261H1.261Z" transform="translate(0 -21.071)"/>
      </g>
      <g id="Group_61" data-name="Group 61" transform="translate(0 16.809)">
        <path id="Path_44" data-name="Path 44" class="cls-1" d="M1.261,44.665A1.261,1.261,0,0,1,0,43.4H0a1.261,1.261,0,0,1,1.261-1.26H22.273a1.261,1.261,0,0,1,1.261,1.26h0a1.261,1.261,0,0,1-1.261,1.261H1.261Z" transform="translate(0 -42.143)"/>
      </g>
    </g>
  </g>
</svg>
