<svg xmlns="http://www.w3.org/2000/svg" viewBox="8147 4717 40.895 32">
  <defs>
    <style>
      .cls-1 {
        fill: #b9b9b9;
      }
    </style>
  </defs>
  <g id="noun_1215753_cc" transform="translate(8136 4697.8)">
    <g id="Group_56" data-name="Group 56" transform="translate(11 19.2)">
      <path id="Path_38" data-name="Path 38" class="cls-1" d="M38.279,34.178,51.825,21.909A7.283,7.283,0,0,0,46.2,19.2H19.723A7.237,7.237,0,0,0,14.1,21.858L27.646,34.178A7.861,7.861,0,0,0,38.279,34.178Z" transform="translate(-12.515 -19.2)"/>
      <path id="Path_39" data-name="Path 39" class="cls-1" d="M80.148,30.809a6.758,6.758,0,0,0-.562-2.709L68.8,37.864,80.148,48.189Z" transform="translate(-39.254 -23.55)"/>
      <path id="Path_40" data-name="Path 40" class="cls-1" d="M18.55,66.207H44.978a7.283,7.283,0,0,0,6.85-4.958L39.355,49.9l-.92.818a9.773,9.773,0,0,1-13.291,0l-.869-.818L11.7,61.248A7.283,7.283,0,0,0,18.55,66.207Z" transform="translate(-11.342 -34.207)"/>
      <path id="Path_41" data-name="Path 41" class="cls-1" d="M11,30.76v17.38L22.348,37.815,11.562,28A6.823,6.823,0,0,0,11,30.76Z" transform="translate(-11 -23.502)"/>
    </g>
  </g>
</svg>
