<svg xmlns="http://www.w3.org/2000/svg" viewBox="177.001 3919 47.591 45.433">
  <defs>
    <style>
      .cls-1 {
        fill: #2b80ba;
      }
    </style>
  </defs>
  <g id="noun_475314_cc" transform="translate(172 3911.959)">
    <path id="Path_55" data-name="Path 55" class="cls-1" d="M52.51,24.27c-.156-.479-.671-1.3-2.37-1.4l-13.974-.844a.4.4,0,0,1-.179-.122L30.863,8.862C30.24,7.277,29.3,7.041,28.8,7.041s-1.444.236-2.067,1.821L21.609,21.892a.4.4,0,0,1-.171.132l-13.985.845c-1.7.1-2.215.923-2.371,1.4S4.861,25.716,6.175,26.8l10.81,8.9a.4.4,0,0,1,.071.2L13.539,49.46a2.616,2.616,0,0,0,.263,2.36c.626.809,1.81.88,3.081.069l11.8-7.531a1.887,1.887,0,0,1,.216-.005h0L40.709,51.89a3.222,3.222,0,0,0,1.7.584,1.7,1.7,0,0,0,1.382-.654,2.618,2.618,0,0,0,.262-2.36L40.537,35.909A.4.4,0,0,1,40.6,35.7l10.818-8.9C52.731,25.716,52.666,24.75,52.51,24.27Zm-2.381.965-10.816,8.9a2.311,2.311,0,0,0-.738,2.268l3.517,13.561a2.509,2.509,0,0,1,.075.411,2.41,2.41,0,0,1-.368-.2L29.987,42.644a2.324,2.324,0,0,0-2.384,0l-11.81,7.536a2.376,2.376,0,0,1-.369.2,2.5,2.5,0,0,1,.075-.411l3.518-13.561a2.313,2.313,0,0,0-.737-2.268l-10.818-8.9a2.509,2.509,0,0,1-.3-.289,2.606,2.606,0,0,1,.415-.056l13.987-.844a2.316,2.316,0,0,0,1.928-1.4L28.615,9.6a2.465,2.465,0,0,1,.182-.377,2.465,2.465,0,0,1,.182.377L34.1,22.643a2.317,2.317,0,0,0,1.928,1.4l13.985.845a2.489,2.489,0,0,1,.415.056A2.321,2.321,0,0,1,50.13,25.235Z" transform="translate(0 0)"/>
  </g>
</svg>
