<svg xmlns="http://www.w3.org/2000/svg" viewBox="74 150 61.999 61.152">
  <defs>
    <style>
      .cls-1 {
        fill: #b9b9b9;
      }
    </style>
  </defs>
  <g id="noun_618753_cc" transform="translate(73 148.576)">
    <g id="Group_1" data-name="Group 1">
      <path id="Path_1" data-name="Path 1" class="cls-1" d="M32.215,1.424A1.272,1.272,0,0,0,30.944,2.7V22.16a1.271,1.271,0,0,0,2.542,0V2.695A1.272,1.272,0,0,0,32.215,1.424Z"/>
      <path id="Path_2" data-name="Path 2" class="cls-1" d="M61.729,31H42.264a1.271,1.271,0,0,0,0,2.542H61.728a1.271,1.271,0,0,0,0-2.542Z"/>
      <path id="Path_3" data-name="Path 3" class="cls-1" d="M32.216,40.569a1.272,1.272,0,0,0-1.271,1.271V61.305a1.271,1.271,0,0,0,2.542,0V41.84A1.273,1.273,0,0,0,32.216,40.569Z"/>
      <path id="Path_4" data-name="Path 4" class="cls-1" d="M21.736,31H2.271a1.271,1.271,0,1,0,0,2.542H21.736a1.271,1.271,0,1,0,0-2.542Z"/>
      <path id="Path_5" data-name="Path 5" class="cls-1" d="M50.865,13.525A26.249,26.249,0,0,0,35.437,5.806v2.57A23.905,23.905,0,0,1,55.7,29.061h2.55A26.093,26.093,0,0,0,50.865,13.525ZM8.366,35.494H5.806A26.482,26.482,0,0,0,29,58.253v-2.56A23.925,23.925,0,0,1,8.366,35.494Zm5.159-22.359A26.232,26.232,0,0,0,5.748,29.06h2.56A23.9,23.9,0,0,1,29,8.307V5.747A26.189,26.189,0,0,0,13.525,13.135ZM55.634,35.494a23.944,23.944,0,0,1-20.2,20.14V58.2A26.477,26.477,0,0,0,58.194,35.495h-2.56Z"/>
      <path id="Path_6" data-name="Path 6" class="cls-1" d="M35.436,16.639v1A14.8,14.8,0,0,1,46.474,29.06h.983A15.744,15.744,0,0,0,35.436,16.639ZM17.652,35.493h-.993A15.744,15.744,0,0,0,29,47.446v-.993A14.789,14.789,0,0,1,17.652,35.493Zm-1.11-6.434h.983A14.8,14.8,0,0,1,29,17.544v-.993A15.745,15.745,0,0,0,16.542,29.059Zm29.806,6.434A14.782,14.782,0,0,1,35.436,46.356v1a15.754,15.754,0,0,0,11.9-11.866h-.993Z"/>
    </g>
  </g>
</svg>
