<svg xmlns="http://www.w3.org/2000/svg" viewBox="224 424 40 31">
  <defs>
    <style>
      .cls-1 {
        fill: #909399;
      }
    </style>
  </defs>
  <g id="noun_664159_cc" transform="translate(224 424)">
    <path id="Path_1" data-name="Path 1" class="cls-1" d="M34.5,13.5A1.5,1.5,0,1,0,36,15,1.5,1.5,0,0,0,34.5,13.5Zm0,2A.5.5,0,1,1,35,15,.5.5,0,0,1,34.5,15.5Z" transform="translate(0 -4.5)"/>
    <path id="Path_2" data-name="Path 2" class="cls-1" d="M20,12.5a9,9,0,1,0,9,9A9,9,0,0,0,20,12.5Zm0,16a7,7,0,1,1,7-7,7,7,0,0,1-7,7Z" transform="translate(0 -4.5)"/>
    <path id="Path_3" data-name="Path 3" class="cls-1" d="M36,9.5H27.4L25.7,5.1a1,1,0,0,0-.9-.6H15.3a1,1,0,0,0-.9.6L12.6,9.5H10.9v-2a1,1,0,0,0-1-1H5a1,1,0,0,0-1,1v2H4a4,4,0,0,0-4,4v18a4,4,0,0,0,4,4H36a4,4,0,0,0,4-4v-18A4,4,0,0,0,36,9.5ZM6,8.5H8.9v1H6Zm32,23a2,2,0,0,1-2,2H4a2,2,0,0,1-2-2v-18a2,2,0,0,1,2-2h9.3a1,1,0,0,0,.9-.6l1.7-4.4H24l1.7,4.4a1,1,0,0,0,.9.6H36a2,2,0,0,1,2,2Z" transform="translate(0 -4.5)"/>
  </g>
</svg>
