<?xml version="1.0" encoding="utf-8"?>
<!-- Generator: Adobe Illustrator 21.0.0, SVG Export Plug-In . SVG Version: 6.00 Build 0)  -->
<svg version="1.1" id="Слой_1" xmlns="http://www.w3.org/2000/svg" xmlns:xlink="http://www.w3.org/1999/xlink" x="0px" y="0px"
	 viewBox="0 0 33.7 43.3" style="enable-background:new 0 0 33.7 43.3;" xml:space="preserve">
<style type="text/css">
	.st0{fill:url(#Path_42_1_);}
	.st1{fill:url(#Path_43_1_);}
	.st2{fill:url(#Path_44_1_);}
</style>
<g id="notification" transform="translate(8132.999 4785.012)">
	<g id="Group_57" transform="translate(17.485 5.988)">
		
			<linearGradient id="Path_42_1_" gradientUnits="userSpaceOnUse" x1="-8136.8403" y1="-4748.7075" x2="-8130.2358" y2="-4754.2495">
			<stop  offset="0" style="stop-color:#800080"/>
			<stop  offset="1" style="stop-color:#FF4500"/>
		</linearGradient>
		<path id="Path_42" class="st0" d="M-8133.7-4747.7c2.6,0,4.8-2,5.1-4.5h-10.2C-8138.4-4749.7-8136.3-4747.8-8133.7-4747.7z"/>
		
			<linearGradient id="Path_43_1_" gradientUnits="userSpaceOnUse" x1="-8147.1821" y1="-4758.5029" x2="-8122.0781" y2="-4779.5674">
			<stop  offset="0" style="stop-color:#800080"/>
			<stop  offset="1" style="stop-color:#FF4500"/>
		</linearGradient>
		<path id="Path_43" class="st1" d="M-8145.6-4772.3c0,7.2-1.3,10.8-2.6,12.5h29.3c-1.4-1.7-2.6-5.2-2.6-12.5c0-7.7-4.5-10.9-8-12.2
			c0.3-0.6,0.4-1.2,0.4-1.9c0-2.4-2-4.4-4.4-4.4c-2.4,0-4.4,2-4.4,4.4c0,0,0,0,0,0c0,0.7,0.2,1.3,0.4,1.9
			C-8141.1-4783.3-8145.6-4780.1-8145.6-4772.3z M-8133.7-4789c1.4,0,2.5,1.1,2.4,2.5c0,0,0,0,0,0c0,0.4-0.1,0.8-0.2,1.2l0.9,0.5
			c0,0-0.1-0.1-0.2-0.1c-1.8-0.5-3.6-0.6-5.4-0.1l0.4-0.2c-0.2-0.4-0.4-0.8-0.3-1.3C-8136.1-4787.8-8135.1-4789-8133.7-4789
			C-8133.7-4789-8133.7-4789-8133.7-4789z"/>
		
			<linearGradient id="Path_44_1_" gradientUnits="userSpaceOnUse" x1="-8143.9512" y1="-4747.7456" x2="-8123.2373" y2="-4765.1265">
			<stop  offset="0" style="stop-color:#800080"/>
			<stop  offset="1" style="stop-color:#FF4500"/>
		</linearGradient>
		<path id="Path_44" class="st2" d="M-8150.5-4756.5c0,1.5,1.2,2.7,2.7,2.8h28.3c1.5,0,2.7-1.2,2.7-2.8c0,0,0,0,0,0
			c0-0.4-0.1-0.9-0.3-1.3h-33.1C-8150.4-4757.4-8150.5-4757-8150.5-4756.5z"/>
	</g>
</g>
</svg>
