<svg xmlns="http://www.w3.org/2000/svg" viewBox="1026.011 4244 23.514 23.513">
  <defs>
    <style>
      .cls-1 {
        fill: #2b80ba;
      }
    </style>
  </defs>
  <g id="noun_1015117_cc" transform="translate(1442 3969.989)">
    <path id="Path_45" data-name="Path 45" class="cls-1" d="M28.314,5.222a.72.72,0,0,0-.754-.167L5.484,13.1a.719.719,0,0,0,0,1.351l9.98,3.621,3.621,9.98a.719.719,0,0,0,.675.474h0a.719.719,0,0,0,.675-.473L28.481,5.976A.719.719,0,0,0,28.314,5.222ZM19.763,25.7l-2.906-8.008,2.98-2.98A.719.719,0,1,0,18.821,13.7l-2.98,2.98L7.833,13.773,26.6,6.934Z" transform="translate(-421 269)"/>
  </g>
</svg>
