<svg xmlns="http://www.w3.org/2000/svg" viewBox="8151.5 5030 31.403 39.08">
  <defs>
    <style>
      .cls-1 {
        fill: #b9b9b9;
      }
    </style>
  </defs>
  <g id="noun_1177198_cc" transform="translate(8124 5008)">
    <g id="Group_58" data-name="Group 58" transform="translate(27.5 22)">
      <g id="Group_57" data-name="Group 57">
        <path id="Path_41" data-name="Path 41" class="cls-1" d="M21.284,3.053a5.933,5.933,0,0,1,0,11.341V29.659a1.745,1.745,0,0,1-3.489,0V14.394a5.933,5.933,0,0,1,0-11.341V1.745a1.745,1.745,0,0,1,3.489,0ZM17.1,8.723A2.442,2.442,0,1,0,19.54,6.281,2.445,2.445,0,0,0,17.1,8.723ZM7.676,18.405h0a5.933,5.933,0,0,1,0,11.342,1.745,1.745,0,0,1-3.485,0,5.933,5.933,0,0,1,0-11.342V1.745a1.745,1.745,0,0,1,3.489,0ZM3.489,24.076a2.442,2.442,0,1,0,2.442-2.442A2.445,2.445,0,0,0,3.489,24.076Zm31.4-10.556h0a5.933,5.933,0,0,1,0,11.341v4.8a1.745,1.745,0,1,1-3.489,0v-4.8a5.933,5.933,0,0,1,0-11.341V1.745a1.745,1.745,0,0,1,3.489,0Zm-4.187,5.671a2.442,2.442,0,1,0,2.442-2.442A2.445,2.445,0,0,0,30.705,19.191Z" transform="translate(31.403) rotate(90)"/>
      </g>
    </g>
  </g>
</svg>
