<svg xmlns="http://www.w3.org/2000/svg" viewBox="1144.403 4241 18.286 17.097">
  <defs>
    <style>
      .cls-1 {
        fill: #95989a;
      }
    </style>
  </defs>
  <g id="noun_1189147_cc" transform="translate(1127 4244.104)">
    <path id="Path_15" data-name="Path 15" class="cls-1" d="M33.592,24.834V22l4.693,4.693-4.693,4.693V28.1c-5.455.64-8.076,6.857-8.076,6.857C25.516,29.71,29.051,25.413,33.592,24.834ZM35.33,37.909h-14.2V25.535h8.747a8.993,8.993,0,0,1,2.743-1.128H20.579a.579.579,0,0,0-.579.579V38.518a.579.579,0,0,0,.579.579h15.33a.579.579,0,0,0,.579-.579V29.406L35.33,30.533Z" transform="translate(-2.597 -25.105)"/>
  </g>
</svg>
