<svg xmlns="http://www.w3.org/2000/svg" viewBox="5323.316 3533.023 40 38">
  <defs>
    <style>
      .cls-1 {
        fill: #b9b9b9;
      }
    </style>
  </defs>
  <g id="noun_1000373_cc_1_" data-name="noun_1000373_cc (1)" transform="translate(5323.316 3510.808)">
    <path id="Path_53" data-name="Path 53" class="cls-1" d="M20.128,28.478l.544,1.464,2.62,7.029.472,1.269,1.356.032,7.42.152,1.68.04-7.656,5.792-1.14.862.448,1.352,2.172,6.582.636,1.931L21.324,49.8,20.168,49l-1.156.8-7.556,5.353,2.82-8.9.436-1.38-1.176-.858L7.352,39.62l-1.2-.858H7.8l7.8-.1h1.472l.412-1.436L19.664,30l.464-1.54m-.2-6.243L15.572,36.668,0,36.8l12.372,8.84L7.752,60.216l12.4-8.776L32.476,60.1l-4.7-14.253L40,36.612l-14.828-.343L19.928,22.216Z"/>
  </g>
</svg>
